<svg xmlns="http://www.w3.org/2000/svg" xmlns:xlink="http://www.w3.org/1999/xlink" width="500" zoomAndPan="magnify" viewBox="0 0 375 374.999991" height="500" preserveAspectRatio="xMidYMid meet" version="1.0"><defs><g/></defs><rect x="-37.5" width="450" fill="#ffffff" y="-37.499999" height="449.999989" fill-opacity="1"/><rect x="-37.5" width="450" fill="#141414" y="-37.499999" height="449.999989" fill-opacity="1"/><path stroke-linecap="butt" transform="matrix(-0.749995, 0.00273326, -0.00273326, -0.749995, 151.917343, 184.080677)" fill="none" stroke-linejoin="miter" d="M 4.498682 2.998984 L 198.052052 3.001233 " stroke="#ffffff" stroke-width="6" stroke-opacity="1" stroke-miterlimit="4"/><path stroke-linecap="round" transform="matrix(-0.749995, 0.00273326, -0.00273326, -0.749995, 151.917343, 184.080677)" fill="none" stroke-linejoin="round" d="M 3.000223 -6.001329 L 3.002332 11.998799 " stroke="#ffffff" stroke-width="6" stroke-opacity="1" stroke-miterlimit="4"/><path stroke-linecap="round" transform="matrix(-0.749995, 0.00273326, -0.00273326, -0.749995, 151.917343, 184.080677)" fill="none" stroke-linejoin="round" d="M 199.548402 -5.998582 L 199.550512 12.001546 " stroke="#ffffff" stroke-width="6" stroke-opacity="1" stroke-miterlimit="4"/><path fill="#141414" d="M 0.628906 70.050781 L 374.371094 70.050781 C 388.234375 70.050781 399.476562 81.289062 399.476562 95.152344 L 399.476562 145.359375 C 399.476562 159.222656 388.234375 170.460938 374.371094 170.460938 L 0.628906 170.460938 C -13.234375 170.460938 -24.476562 159.222656 -24.476562 145.359375 L -24.476562 95.152344 C -24.476562 81.289062 -13.234375 70.050781 0.628906 70.050781 Z M 0.628906 70.050781 " fill-opacity="1" fill-rule="nonzero"/><g fill="#ffffff" fill-opacity="1"><g transform="translate(10.360694, 142.381419)"><g><path d="M 38.53125 -8.015625 L 38.53125 0 L 5.125 0 L 5.125 -43.15625 L 37.734375 -43.15625 L 37.734375 -35.140625 L 15.046875 -35.140625 L 15.046875 -25.765625 L 35.078125 -25.765625 L 35.078125 -18 L 15.046875 -18 L 15.046875 -8.015625 Z M 38.53125 -8.015625 "/></g></g></g><g fill="#ffffff" fill-opacity="1"><g transform="translate(72.067885, 142.381419)"><g><path d="M 19.296875 0.734375 C 15.890625 0.734375 12.59375 0.273438 9.40625 -0.640625 C 6.21875 -1.566406 3.65625 -2.769531 1.71875 -4.25 L 5.125 -11.78125 C 6.96875 -10.414062 9.160156 -9.320312 11.703125 -8.5 C 14.253906 -7.6875 16.804688 -7.28125 19.359375 -7.28125 C 22.191406 -7.28125 24.285156 -7.695312 25.640625 -8.53125 C 27.003906 -9.375 27.6875 -10.5 27.6875 -11.90625 C 27.6875 -12.925781 27.285156 -13.773438 26.484375 -14.453125 C 25.679688 -15.128906 24.648438 -15.671875 23.390625 -16.078125 C 22.140625 -16.492188 20.445312 -16.953125 18.3125 -17.453125 C 15.019531 -18.234375 12.328125 -19.015625 10.234375 -19.796875 C 8.140625 -20.578125 6.34375 -21.828125 4.84375 -23.546875 C 3.34375 -25.273438 2.59375 -27.578125 2.59375 -30.453125 C 2.59375 -32.960938 3.269531 -35.234375 4.625 -37.265625 C 5.976562 -39.304688 8.019531 -40.921875 10.75 -42.109375 C 13.488281 -43.304688 16.832031 -43.90625 20.78125 -43.90625 C 23.53125 -43.90625 26.21875 -43.570312 28.84375 -42.90625 C 31.476562 -42.25 33.785156 -41.304688 35.765625 -40.078125 L 32.671875 -32.5 C 28.691406 -34.757812 24.707031 -35.890625 20.71875 -35.890625 C 17.925781 -35.890625 15.859375 -35.4375 14.515625 -34.53125 C 13.179688 -33.625 12.515625 -32.429688 12.515625 -30.953125 C 12.515625 -29.472656 13.285156 -28.375 14.828125 -27.65625 C 16.367188 -26.9375 18.722656 -26.226562 21.890625 -25.53125 C 25.179688 -24.75 27.875 -23.96875 29.96875 -23.1875 C 32.0625 -22.40625 33.859375 -21.171875 35.359375 -19.484375 C 36.859375 -17.796875 37.609375 -15.515625 37.609375 -12.640625 C 37.609375 -10.171875 36.921875 -7.921875 35.546875 -5.890625 C 34.171875 -3.859375 32.101562 -2.242188 29.34375 -1.046875 C 26.59375 0.140625 23.242188 0.734375 19.296875 0.734375 Z M 19.296875 0.734375 "/></g></g></g><g fill="#ffffff" fill-opacity="1"><g transform="translate(131.740947, 142.381419)"><g><path d="M 23.796875 -43.15625 C 27.617188 -43.15625 30.9375 -42.519531 33.75 -41.25 C 36.570312 -39.976562 38.742188 -38.171875 40.265625 -35.828125 C 41.785156 -33.484375 42.546875 -30.707031 42.546875 -27.5 C 42.546875 -24.332031 41.785156 -21.566406 40.265625 -19.203125 C 38.742188 -16.835938 36.570312 -15.03125 33.75 -13.78125 C 30.9375 -12.53125 27.617188 -11.90625 23.796875 -11.90625 L 15.109375 -11.90625 L 15.109375 0 L 5.125 0 L 5.125 -43.15625 Z M 23.25 -20.03125 C 26.25 -20.03125 28.53125 -20.675781 30.09375 -21.96875 C 31.65625 -23.269531 32.4375 -25.113281 32.4375 -27.5 C 32.4375 -29.925781 31.65625 -31.785156 30.09375 -33.078125 C 28.53125 -34.367188 26.25 -35.015625 23.25 -35.015625 L 15.109375 -35.015625 L 15.109375 -20.03125 Z M 23.25 -20.03125 "/></g></g></g><g fill="#ffffff" fill-opacity="1"><g transform="translate(197.20822, 142.381419)"><g><path d="M 38.53125 -8.015625 L 38.53125 0 L 5.125 0 L 5.125 -43.15625 L 37.734375 -43.15625 L 37.734375 -35.140625 L 15.046875 -35.140625 L 15.046875 -25.765625 L 35.078125 -25.765625 L 35.078125 -18 L 15.046875 -18 L 15.046875 -8.015625 Z M 38.53125 -8.015625 "/></g></g></g><g fill="#ffffff" fill-opacity="1"><g transform="translate(258.915411, 142.381419)"><g><path d="M 13.078125 0.734375 C 10.148438 0.734375 7.460938 0.191406 5.015625 -0.890625 C 2.578125 -1.984375 0.578125 -3.535156 -0.984375 -5.546875 L 4.5625 -12.203125 C 6.90625 -9.035156 9.578125 -7.453125 12.578125 -7.453125 C 16.648438 -7.453125 18.6875 -9.835938 18.6875 -14.609375 L 18.6875 -35.140625 L 3.515625 -35.140625 L 3.515625 -43.15625 L 28.609375 -43.15625 L 28.609375 -15.171875 C 28.609375 -9.867188 27.289062 -5.890625 24.65625 -3.234375 C 22.03125 -0.585938 18.171875 0.734375 13.078125 0.734375 Z M 13.078125 0.734375 "/></g></g></g><g fill="#ffffff" fill-opacity="1"><g transform="translate(312.609346, 142.381419)"><g><path d="M 26.015625 0.734375 C 21.535156 0.734375 17.5 -0.226562 13.90625 -2.15625 C 10.3125 -4.09375 7.492188 -6.753906 5.453125 -10.140625 C 3.421875 -13.535156 2.40625 -17.347656 2.40625 -21.578125 C 2.40625 -25.816406 3.421875 -29.628906 5.453125 -33.015625 C 7.492188 -36.410156 10.3125 -39.070312 13.90625 -41 C 17.5 -42.9375 21.535156 -43.90625 26.015625 -43.90625 C 30.492188 -43.90625 34.519531 -42.9375 38.09375 -41 C 41.675781 -39.070312 44.492188 -36.410156 46.546875 -33.015625 C 48.609375 -29.628906 49.640625 -25.816406 49.640625 -21.578125 C 49.640625 -17.347656 48.609375 -13.535156 46.546875 -10.140625 C 44.492188 -6.753906 41.675781 -4.09375 38.09375 -2.15625 C 34.519531 -0.226562 30.492188 0.734375 26.015625 0.734375 Z M 26.015625 -7.765625 C 28.566406 -7.765625 30.867188 -8.347656 32.921875 -9.515625 C 34.972656 -10.691406 36.582031 -12.328125 37.75 -14.421875 C 38.925781 -16.523438 39.515625 -18.910156 39.515625 -21.578125 C 39.515625 -24.253906 38.925781 -26.640625 37.75 -28.734375 C 36.582031 -30.828125 34.972656 -32.457031 32.921875 -33.625 C 30.867188 -34.800781 28.566406 -35.390625 26.015625 -35.390625 C 23.472656 -35.390625 21.171875 -34.800781 19.109375 -33.625 C 17.054688 -32.457031 15.441406 -30.828125 14.265625 -28.734375 C 13.097656 -26.640625 12.515625 -24.253906 12.515625 -21.578125 C 12.515625 -18.910156 13.097656 -16.523438 14.265625 -14.421875 C 15.441406 -12.328125 17.054688 -10.691406 19.109375 -9.515625 C 21.171875 -8.347656 23.472656 -7.765625 26.015625 -7.765625 Z M 26.015625 -7.765625 "/></g></g></g><path fill="#141414" d="M 168.382812 150.125 L 207.574219 150.734375 C 216.398438 150.871094 223.4375 158.136719 223.300781 166.960938 L 222.804688 198.914062 C 222.667969 207.738281 215.402344 214.78125 206.578125 214.644531 L 167.386719 214.035156 C 158.5625 213.898438 151.519531 206.632812 151.660156 197.808594 L 152.15625 165.851562 C 152.292969 157.027344 159.558594 149.984375 168.382812 150.125 Z M 168.382812 150.125 " fill-opacity="1" fill-rule="nonzero"/><g fill="#ffffff" fill-opacity="1"><g transform="translate(173.961197, 195.675459)"><g><path d="M 24.46875 0.8125 L 20.671875 -3.21875 C 18.273438 -0.738281 15.148438 0.46875 11.296875 0.40625 C 9.492188 0.382812 7.890625 0.0664062 6.484375 -0.546875 C 5.078125 -1.171875 3.984375 -2.023438 3.203125 -3.109375 C 2.421875 -4.203125 2.039062 -5.4375 2.0625 -6.8125 C 2.082031 -8.488281 2.632812 -9.976562 3.71875 -11.28125 C 4.800781 -12.59375 6.625 -13.957031 9.1875 -15.375 C 7.894531 -16.78125 7 -17.972656 6.5 -18.953125 C 6.007812 -19.929688 5.773438 -20.960938 5.796875 -22.046875 C 5.828125 -23.828125 6.484375 -25.25 7.765625 -26.3125 C 9.054688 -27.382812 10.78125 -27.90625 12.9375 -27.875 C 14.925781 -27.84375 16.492188 -27.320312 17.640625 -26.3125 C 18.796875 -25.3125 19.359375 -23.953125 19.328125 -22.234375 C 19.304688 -20.847656 18.820312 -19.613281 17.875 -18.53125 C 16.9375 -17.445312 15.316406 -16.253906 13.015625 -14.953125 L 20.53125 -6.96875 C 21.40625 -8.457031 22.054688 -10.238281 22.484375 -12.3125 L 24.78125 -11.5625 C 24.238281 -9.070312 23.382812 -6.945312 22.21875 -5.1875 L 26.125 -1.03125 Z M 12.90625 -25.765625 C 11.519531 -25.785156 10.429688 -25.453125 9.640625 -24.765625 C 8.847656 -24.085938 8.441406 -23.179688 8.421875 -22.046875 C 8.410156 -21.222656 8.613281 -20.4375 9.03125 -19.6875 C 9.445312 -18.9375 10.265625 -17.914062 11.484375 -16.625 C 13.515625 -17.757812 14.921875 -18.734375 15.703125 -19.546875 C 16.492188 -20.359375 16.894531 -21.253906 16.90625 -22.234375 C 16.925781 -23.296875 16.582031 -24.144531 15.875 -24.78125 C 15.164062 -25.414062 14.175781 -25.742188 12.90625 -25.765625 Z M 11.5 -1.9375 C 14.570312 -1.882812 17.078125 -2.890625 19.015625 -4.953125 L 10.765625 -13.734375 C 8.546875 -12.515625 7.007812 -11.40625 6.15625 -10.40625 C 5.300781 -9.414062 4.863281 -8.296875 4.84375 -7.046875 C 4.820312 -5.535156 5.421875 -4.3125 6.640625 -3.375 C 7.859375 -2.445312 9.476562 -1.96875 11.5 -1.9375 Z M 11.5 -1.9375 "/></g></g></g><path fill="#141414" d="M 1.480469 209.136719 L 373.507812 209.136719 C 377.746094 209.136719 381.8125 210.820312 384.808594 213.816406 C 387.804688 216.8125 389.488281 220.878906 389.488281 225.113281 L 389.488281 257.074219 C 389.488281 261.3125 387.804688 265.378906 384.808594 268.375 C 381.8125 271.371094 377.746094 273.054688 373.507812 273.054688 L 1.480469 273.054688 C -7.347656 273.054688 -14.5 265.898438 -14.5 257.074219 L -14.5 225.113281 C -14.5 216.289062 -7.347656 209.136719 1.480469 209.136719 Z M 1.480469 209.136719 " fill-opacity="1" fill-rule="nonzero"/><g fill="#ffffff" fill-opacity="1"><g transform="translate(7.984668, 254.594926)"><g><path d="M 21.65625 -5.96875 L 8.71875 -5.96875 L 6.25 0 L -0.359375 0 L 12.0625 -27.859375 L 18.421875 -27.859375 L 30.875 0 L 24.109375 0 Z M 19.625 -10.859375 L 15.203125 -21.53125 L 10.78125 -10.859375 Z M 19.625 -10.859375 "/></g></g></g><g fill="#ffffff" fill-opacity="1"><g transform="translate(51.593521, 254.594926)"><g><path d="M 12.453125 0.484375 C 10.253906 0.484375 8.125 0.1875 6.0625 -0.40625 C 4.007812 -1.007812 2.359375 -1.789062 1.109375 -2.75 L 3.296875 -7.59375 C 4.492188 -6.71875 5.914062 -6.015625 7.5625 -5.484375 C 9.207031 -4.960938 10.851562 -4.703125 12.5 -4.703125 C 14.320312 -4.703125 15.671875 -4.972656 16.546875 -5.515625 C 17.429688 -6.054688 17.875 -6.78125 17.875 -7.6875 C 17.875 -8.34375 17.613281 -8.890625 17.09375 -9.328125 C 16.570312 -9.765625 15.90625 -10.113281 15.09375 -10.375 C 14.289062 -10.644531 13.195312 -10.941406 11.8125 -11.265625 C 9.695312 -11.765625 7.960938 -12.265625 6.609375 -12.765625 C 5.253906 -13.273438 4.09375 -14.085938 3.125 -15.203125 C 2.15625 -16.316406 1.671875 -17.800781 1.671875 -19.65625 C 1.671875 -21.28125 2.109375 -22.75 2.984375 -24.0625 C 3.859375 -25.375 5.175781 -26.410156 6.9375 -27.171875 C 8.707031 -27.941406 10.863281 -28.328125 13.40625 -28.328125 C 15.1875 -28.328125 16.925781 -28.113281 18.625 -27.6875 C 20.320312 -27.269531 21.804688 -26.664062 23.078125 -25.875 L 21.09375 -20.96875 C 18.519531 -22.425781 15.945312 -23.15625 13.375 -23.15625 C 11.570312 -23.15625 10.238281 -22.863281 9.375 -22.28125 C 8.507812 -21.695312 8.078125 -20.929688 8.078125 -19.984375 C 8.078125 -19.023438 8.570312 -18.3125 9.5625 -17.84375 C 10.5625 -17.382812 12.082031 -16.925781 14.125 -16.46875 C 16.25 -15.96875 17.988281 -15.460938 19.34375 -14.953125 C 20.695312 -14.453125 21.859375 -13.65625 22.828125 -12.5625 C 23.796875 -11.476562 24.28125 -10.007812 24.28125 -8.15625 C 24.28125 -6.5625 23.832031 -5.109375 22.9375 -3.796875 C 22.050781 -2.484375 20.71875 -1.441406 18.9375 -0.671875 C 17.164062 0.0976562 15.003906 0.484375 12.453125 0.484375 Z M 12.453125 0.484375 "/></g></g></g><g fill="#ffffff" fill-opacity="1"><g transform="translate(90.109869, 254.594926)"><g><path d="M 16.796875 0.484375 C 13.898438 0.484375 11.289062 -0.140625 8.96875 -1.390625 C 6.644531 -2.640625 4.828125 -4.359375 3.515625 -6.546875 C 2.203125 -8.734375 1.546875 -11.191406 1.546875 -13.921875 C 1.546875 -16.660156 2.203125 -19.125 3.515625 -21.3125 C 4.828125 -23.5 6.644531 -25.210938 8.96875 -26.453125 C 11.289062 -27.703125 13.898438 -28.328125 16.796875 -28.328125 C 19.679688 -28.328125 22.28125 -27.703125 24.59375 -26.453125 C 26.90625 -25.210938 28.722656 -23.5 30.046875 -21.3125 C 31.367188 -19.125 32.03125 -16.660156 32.03125 -13.921875 C 32.03125 -11.191406 31.367188 -8.734375 30.046875 -6.546875 C 28.722656 -4.359375 26.90625 -2.640625 24.59375 -1.390625 C 22.28125 -0.140625 19.679688 0.484375 16.796875 0.484375 Z M 16.796875 -5.015625 C 18.441406 -5.015625 19.925781 -5.390625 21.25 -6.140625 C 22.570312 -6.898438 23.613281 -7.957031 24.375 -9.3125 C 25.132812 -10.664062 25.515625 -12.203125 25.515625 -13.921875 C 25.515625 -15.648438 25.132812 -17.191406 24.375 -18.546875 C 23.613281 -19.898438 22.570312 -20.953125 21.25 -21.703125 C 19.925781 -22.460938 18.441406 -22.84375 16.796875 -22.84375 C 15.148438 -22.84375 13.660156 -22.460938 12.328125 -21.703125 C 11.003906 -20.953125 9.960938 -19.898438 9.203125 -18.546875 C 8.453125 -17.191406 8.078125 -15.648438 8.078125 -13.921875 C 8.078125 -12.203125 8.453125 -10.664062 9.203125 -9.3125 C 9.960938 -7.957031 11.003906 -6.898438 12.328125 -6.140625 C 13.660156 -5.390625 15.148438 -5.015625 16.796875 -5.015625 Z M 16.796875 -5.015625 "/></g></g></g><g fill="#ffffff" fill-opacity="1"><g transform="translate(136.82197, 254.594926)"><g><path d="M 16.640625 0.484375 C 13.796875 0.484375 11.222656 -0.128906 8.921875 -1.359375 C 6.628906 -2.597656 4.828125 -4.3125 3.515625 -6.5 C 2.203125 -8.695312 1.546875 -11.171875 1.546875 -13.921875 C 1.546875 -16.679688 2.203125 -19.15625 3.515625 -21.34375 C 4.828125 -23.539062 6.628906 -25.253906 8.921875 -26.484375 C 11.222656 -27.710938 13.804688 -28.328125 16.671875 -28.328125 C 19.085938 -28.328125 21.269531 -27.898438 23.21875 -27.046875 C 25.164062 -26.203125 26.804688 -24.988281 28.140625 -23.40625 L 24 -19.578125 C 22.113281 -21.753906 19.78125 -22.84375 17 -22.84375 C 15.269531 -22.84375 13.726562 -22.460938 12.375 -21.703125 C 11.019531 -20.953125 9.960938 -19.898438 9.203125 -18.546875 C 8.453125 -17.191406 8.078125 -15.648438 8.078125 -13.921875 C 8.078125 -12.203125 8.453125 -10.664062 9.203125 -9.3125 C 9.960938 -7.957031 11.019531 -6.898438 12.375 -6.140625 C 13.726562 -5.390625 15.269531 -5.015625 17 -5.015625 C 19.78125 -5.015625 22.113281 -6.113281 24 -8.3125 L 28.140625 -4.5 C 26.804688 -2.875 25.15625 -1.632812 23.1875 -0.78125 C 21.226562 0.0625 19.046875 0.484375 16.640625 0.484375 Z M 16.640625 0.484375 "/></g></g></g><g fill="#ffffff" fill-opacity="1"><g transform="translate(179.117911, 254.594926)"><g><path d="M 3.296875 -27.859375 L 9.75 -27.859375 L 9.75 0 L 3.296875 0 Z M 3.296875 -27.859375 "/></g></g></g><g fill="#ffffff" fill-opacity="1"><g transform="translate(205.300847, 254.594926)"><g><path d="M 21.65625 -5.96875 L 8.71875 -5.96875 L 6.25 0 L -0.359375 0 L 12.0625 -27.859375 L 18.421875 -27.859375 L 30.875 0 L 24.109375 0 Z M 19.625 -10.859375 L 15.203125 -21.53125 L 10.78125 -10.859375 Z M 19.625 -10.859375 "/></g></g></g><g fill="#ffffff" fill-opacity="1"><g transform="translate(248.9097, 254.594926)"><g><path d="M 3.296875 -27.859375 L 15.953125 -27.859375 C 18.984375 -27.859375 21.65625 -27.28125 23.96875 -26.125 C 26.289062 -24.96875 28.09375 -23.34375 29.375 -21.25 C 30.664062 -19.15625 31.3125 -16.710938 31.3125 -13.921875 C 31.3125 -11.140625 30.664062 -8.703125 29.375 -6.609375 C 28.09375 -4.515625 26.289062 -2.890625 23.96875 -1.734375 C 21.65625 -0.578125 18.984375 0 15.953125 0 L 3.296875 0 Z M 15.640625 -5.296875 C 18.421875 -5.296875 20.640625 -6.070312 22.296875 -7.625 C 23.960938 -9.175781 24.796875 -11.273438 24.796875 -13.921875 C 24.796875 -16.578125 23.960938 -18.679688 22.296875 -20.234375 C 20.640625 -21.785156 18.421875 -22.5625 15.640625 -22.5625 L 9.75 -22.5625 L 9.75 -5.296875 Z M 15.640625 -5.296875 "/></g></g></g><g fill="#ffffff" fill-opacity="1"><g transform="translate(294.905654, 254.594926)"><g><path d="M 16.796875 0.484375 C 13.898438 0.484375 11.289062 -0.140625 8.96875 -1.390625 C 6.644531 -2.640625 4.828125 -4.359375 3.515625 -6.546875 C 2.203125 -8.734375 1.546875 -11.191406 1.546875 -13.921875 C 1.546875 -16.660156 2.203125 -19.125 3.515625 -21.3125 C 4.828125 -23.5 6.644531 -25.210938 8.96875 -26.453125 C 11.289062 -27.703125 13.898438 -28.328125 16.796875 -28.328125 C 19.679688 -28.328125 22.28125 -27.703125 24.59375 -26.453125 C 26.90625 -25.210938 28.722656 -23.5 30.046875 -21.3125 C 31.367188 -19.125 32.03125 -16.660156 32.03125 -13.921875 C 32.03125 -11.191406 31.367188 -8.734375 30.046875 -6.546875 C 28.722656 -4.359375 26.90625 -2.640625 24.59375 -1.390625 C 22.28125 -0.140625 19.679688 0.484375 16.796875 0.484375 Z M 16.796875 -5.015625 C 18.441406 -5.015625 19.925781 -5.390625 21.25 -6.140625 C 22.570312 -6.898438 23.613281 -7.957031 24.375 -9.3125 C 25.132812 -10.664062 25.515625 -12.203125 25.515625 -13.921875 C 25.515625 -15.648438 25.132812 -17.191406 24.375 -18.546875 C 23.613281 -19.898438 22.570312 -20.953125 21.25 -21.703125 C 19.925781 -22.460938 18.441406 -22.84375 16.796875 -22.84375 C 15.148438 -22.84375 13.660156 -22.460938 12.328125 -21.703125 C 11.003906 -20.953125 9.960938 -19.898438 9.203125 -18.546875 C 8.453125 -17.191406 8.078125 -15.648438 8.078125 -13.921875 C 8.078125 -12.203125 8.453125 -10.664062 9.203125 -9.3125 C 9.960938 -7.957031 11.003906 -6.898438 12.328125 -6.140625 C 13.660156 -5.390625 15.148438 -5.015625 16.796875 -5.015625 Z M 16.796875 -5.015625 "/></g></g></g><g fill="#ffffff" fill-opacity="1"><g transform="translate(341.617755, 254.594926)"><g><path d="M 12.453125 0.484375 C 10.253906 0.484375 8.125 0.1875 6.0625 -0.40625 C 4.007812 -1.007812 2.359375 -1.789062 1.109375 -2.75 L 3.296875 -7.59375 C 4.492188 -6.71875 5.914062 -6.015625 7.5625 -5.484375 C 9.207031 -4.960938 10.851562 -4.703125 12.5 -4.703125 C 14.320312 -4.703125 15.671875 -4.972656 16.546875 -5.515625 C 17.429688 -6.054688 17.875 -6.78125 17.875 -7.6875 C 17.875 -8.34375 17.613281 -8.890625 17.09375 -9.328125 C 16.570312 -9.765625 15.90625 -10.113281 15.09375 -10.375 C 14.289062 -10.644531 13.195312 -10.941406 11.8125 -11.265625 C 9.695312 -11.765625 7.960938 -12.265625 6.609375 -12.765625 C 5.253906 -13.273438 4.09375 -14.085938 3.125 -15.203125 C 2.15625 -16.316406 1.671875 -17.800781 1.671875 -19.65625 C 1.671875 -21.28125 2.109375 -22.75 2.984375 -24.0625 C 3.859375 -25.375 5.175781 -26.410156 6.9375 -27.171875 C 8.707031 -27.941406 10.863281 -28.328125 13.40625 -28.328125 C 15.1875 -28.328125 16.925781 -28.113281 18.625 -27.6875 C 20.320312 -27.269531 21.804688 -26.664062 23.078125 -25.875 L 21.09375 -20.96875 C 18.519531 -22.425781 15.945312 -23.15625 13.375 -23.15625 C 11.570312 -23.15625 10.238281 -22.863281 9.375 -22.28125 C 8.507812 -21.695312 8.078125 -20.929688 8.078125 -19.984375 C 8.078125 -19.023438 8.570312 -18.3125 9.5625 -17.84375 C 10.5625 -17.382812 12.082031 -16.925781 14.125 -16.46875 C 16.25 -15.96875 17.988281 -15.460938 19.34375 -14.953125 C 20.695312 -14.453125 21.859375 -13.65625 22.828125 -12.5625 C 23.796875 -11.476562 24.28125 -10.007812 24.28125 -8.15625 C 24.28125 -6.5625 23.832031 -5.109375 22.9375 -3.796875 C 22.050781 -2.484375 20.71875 -1.441406 18.9375 -0.671875 C 17.164062 0.0976562 15.003906 0.484375 12.453125 0.484375 Z M 12.453125 0.484375 "/></g></g></g><path stroke-linecap="butt" transform="matrix(-0.749995, 0.00273276, -0.00273276, -0.749995, 375.000976, 184.634313)" fill="none" stroke-linejoin="miter" d="M 4.500826 2.997588 L 198.085446 2.999823 " stroke="#ffffff" stroke-width="6" stroke-opacity="1" stroke-miterlimit="4"/><path stroke-linecap="round" transform="matrix(-0.749995, 0.00273276, -0.00273276, -0.749995, 375.000976, 184.634313)" fill="none" stroke-linejoin="round" d="M 3.002341 -5.997516 L 2.999254 12.002593 " stroke="#ffffff" stroke-width="6" stroke-opacity="1" stroke-miterlimit="4"/><path stroke-linecap="round" transform="matrix(-0.749995, 0.00273276, -0.00273276, -0.749995, 375.000976, 184.634313)" fill="none" stroke-linejoin="round" d="M 199.586998 -5.999975 L 199.58912 12.000154 " stroke="#ffffff" stroke-width="6" stroke-opacity="1" stroke-miterlimit="4"/><path fill="#141414" d="M 0.503906 274.453125 L 374.496094 274.453125 C 379.019531 274.453125 382.683594 278.117188 382.683594 282.640625 L 382.683594 299.015625 C 382.683594 303.539062 379.019531 307.203125 374.496094 307.203125 L 0.503906 307.203125 C -4.019531 307.203125 -7.683594 303.539062 -7.683594 299.015625 L -7.683594 282.640625 C -7.683594 278.117188 -4.019531 274.453125 0.503906 274.453125 Z M 0.503906 274.453125 " fill-opacity="1" fill-rule="nonzero"/><g fill="#ffffff" fill-opacity="1"><g transform="translate(3.046373, 297.952891)"><g><path d="M 12.5 -2.59375 L 12.5 0 L 1.65625 0 L 1.65625 -14 L 12.234375 -14 L 12.234375 -11.40625 L 4.875 -11.40625 L 4.875 -8.359375 L 11.375 -8.359375 L 11.375 -5.84375 L 4.875 -5.84375 L 4.875 -2.59375 Z M 12.5 -2.59375 "/></g></g></g><g fill="#ffffff" fill-opacity="1"><g transform="translate(21.921004, 297.952891)"><g><path d="M 6.265625 0.234375 C 5.148438 0.234375 4.078125 0.0859375 3.046875 -0.203125 C 2.015625 -0.503906 1.1875 -0.894531 0.5625 -1.375 L 1.65625 -3.8125 C 2.257812 -3.375 2.972656 -3.019531 3.796875 -2.75 C 4.628906 -2.488281 5.457031 -2.359375 6.28125 -2.359375 C 7.195312 -2.359375 7.875 -2.492188 8.3125 -2.765625 C 8.757812 -3.046875 8.984375 -3.410156 8.984375 -3.859375 C 8.984375 -4.191406 8.851562 -4.46875 8.59375 -4.6875 C 8.332031 -4.90625 8 -5.082031 7.59375 -5.21875 C 7.1875 -5.351562 6.632812 -5.5 5.9375 -5.65625 C 4.875 -5.914062 4 -6.171875 3.3125 -6.421875 C 2.632812 -6.671875 2.050781 -7.078125 1.5625 -7.640625 C 1.082031 -8.203125 0.84375 -8.945312 0.84375 -9.875 C 0.84375 -10.6875 1.0625 -11.421875 1.5 -12.078125 C 1.9375 -12.742188 2.597656 -13.269531 3.484375 -13.65625 C 4.367188 -14.039062 5.453125 -14.234375 6.734375 -14.234375 C 7.628906 -14.234375 8.503906 -14.125 9.359375 -13.90625 C 10.210938 -13.695312 10.957031 -13.394531 11.59375 -13 L 10.59375 -10.546875 C 9.300781 -11.273438 8.007812 -11.640625 6.71875 -11.640625 C 5.8125 -11.640625 5.140625 -11.492188 4.703125 -11.203125 C 4.273438 -10.910156 4.0625 -10.523438 4.0625 -10.046875 C 4.0625 -9.554688 4.3125 -9.195312 4.8125 -8.96875 C 5.3125 -8.738281 6.070312 -8.507812 7.09375 -8.28125 C 8.164062 -8.03125 9.039062 -7.773438 9.71875 -7.515625 C 10.394531 -7.265625 10.976562 -6.863281 11.46875 -6.3125 C 11.957031 -5.769531 12.203125 -5.03125 12.203125 -4.09375 C 12.203125 -3.300781 11.976562 -2.570312 11.53125 -1.90625 C 11.082031 -1.25 10.410156 -0.726562 9.515625 -0.34375 C 8.628906 0.0390625 7.546875 0.234375 6.265625 0.234375 Z M 6.265625 0.234375 "/></g></g></g><g fill="#ffffff" fill-opacity="1"><g transform="translate(40.135894, 297.952891)"><g><path d="M 4.5625 -11.359375 L 0.078125 -11.359375 L 0.078125 -14 L 12.28125 -14 L 12.28125 -11.359375 L 7.796875 -11.359375 L 7.796875 0 L 4.5625 0 Z M 4.5625 -11.359375 "/></g></g></g><g fill="#ffffff" fill-opacity="1"><g transform="translate(57.950939, 297.952891)"><g><path d="M 7.875 0.234375 C 5.875 0.234375 4.316406 -0.316406 3.203125 -1.421875 C 2.097656 -2.523438 1.546875 -4.101562 1.546875 -6.15625 L 1.546875 -14 L 4.78125 -14 L 4.78125 -6.28125 C 4.78125 -3.769531 5.820312 -2.515625 7.90625 -2.515625 C 8.914062 -2.515625 9.6875 -2.816406 10.21875 -3.421875 C 10.75 -4.035156 11.015625 -4.988281 11.015625 -6.28125 L 11.015625 -14 L 14.21875 -14 L 14.21875 -6.15625 C 14.21875 -4.101562 13.660156 -2.523438 12.546875 -1.421875 C 11.429688 -0.316406 9.875 0.234375 7.875 0.234375 Z M 7.875 0.234375 "/></g></g></g><g fill="#ffffff" fill-opacity="1"><g transform="translate(79.16465, 297.952891)"><g><path d="M 1.65625 -14 L 8.015625 -14 C 9.535156 -14 10.878906 -13.707031 12.046875 -13.125 C 13.210938 -12.550781 14.117188 -11.734375 14.765625 -10.671875 C 15.410156 -9.617188 15.734375 -8.394531 15.734375 -7 C 15.734375 -5.601562 15.410156 -4.375 14.765625 -3.3125 C 14.117188 -2.257812 13.210938 -1.441406 12.046875 -0.859375 C 10.878906 -0.285156 9.535156 0 8.015625 0 L 1.65625 0 Z M 7.859375 -2.65625 C 9.253906 -2.65625 10.367188 -3.046875 11.203125 -3.828125 C 12.035156 -4.609375 12.453125 -5.664062 12.453125 -7 C 12.453125 -8.332031 12.035156 -9.390625 11.203125 -10.171875 C 10.367188 -10.953125 9.253906 -11.34375 7.859375 -11.34375 L 4.90625 -11.34375 L 4.90625 -2.65625 Z M 7.859375 -2.65625 "/></g></g></g><g fill="#ffffff" fill-opacity="1"><g transform="translate(101.138049, 297.952891)"><g><path d="M 1.65625 -14 L 4.90625 -14 L 4.90625 0 L 1.65625 0 Z M 1.65625 -14 "/></g></g></g><g fill="#ffffff" fill-opacity="1"><g transform="translate(113.155398, 297.952891)"><g><path d="M 8.4375 0.234375 C 6.988281 0.234375 5.679688 -0.078125 4.515625 -0.703125 C 3.347656 -1.328125 2.429688 -2.1875 1.765625 -3.28125 C 1.109375 -4.382812 0.78125 -5.625 0.78125 -7 C 0.78125 -8.375 1.109375 -9.609375 1.765625 -10.703125 C 2.429688 -11.804688 3.347656 -12.671875 4.515625 -13.296875 C 5.679688 -13.921875 6.988281 -14.234375 8.4375 -14.234375 C 9.894531 -14.234375 11.203125 -13.921875 12.359375 -13.296875 C 13.515625 -12.671875 14.425781 -11.804688 15.09375 -10.703125 C 15.757812 -9.609375 16.09375 -8.375 16.09375 -7 C 16.09375 -5.625 15.757812 -4.382812 15.09375 -3.28125 C 14.425781 -2.1875 13.515625 -1.328125 12.359375 -0.703125 C 11.203125 -0.078125 9.894531 0.234375 8.4375 0.234375 Z M 8.4375 -2.515625 C 9.269531 -2.515625 10.019531 -2.703125 10.6875 -3.078125 C 11.351562 -3.460938 11.875 -3.992188 12.25 -4.671875 C 12.625 -5.359375 12.8125 -6.132812 12.8125 -7 C 12.8125 -7.863281 12.625 -8.632812 12.25 -9.3125 C 11.875 -10 11.351562 -10.53125 10.6875 -10.90625 C 10.019531 -11.289062 9.269531 -11.484375 8.4375 -11.484375 C 7.613281 -11.484375 6.867188 -11.289062 6.203125 -10.90625 C 5.535156 -10.53125 5.007812 -10 4.625 -9.3125 C 4.25 -8.632812 4.0625 -7.863281 4.0625 -7 C 4.0625 -6.132812 4.25 -5.359375 4.625 -4.671875 C 5.007812 -3.992188 5.535156 -3.460938 6.203125 -3.078125 C 6.867188 -2.703125 7.613281 -2.515625 8.4375 -2.515625 Z M 8.4375 -2.515625 "/></g></g></g><g fill="#ffffff" fill-opacity="1"><g transform="translate(135.488655, 297.952891)"><g/></g></g><g fill="#ffffff" fill-opacity="1"><g transform="translate(146.606338, 297.952891)"><g><path d="M 1.65625 -14 L 8.015625 -14 C 9.535156 -14 10.878906 -13.707031 12.046875 -13.125 C 13.210938 -12.550781 14.117188 -11.734375 14.765625 -10.671875 C 15.410156 -9.617188 15.734375 -8.394531 15.734375 -7 C 15.734375 -5.601562 15.410156 -4.375 14.765625 -3.3125 C 14.117188 -2.257812 13.210938 -1.441406 12.046875 -0.859375 C 10.878906 -0.285156 9.535156 0 8.015625 0 L 1.65625 0 Z M 7.859375 -2.65625 C 9.253906 -2.65625 10.367188 -3.046875 11.203125 -3.828125 C 12.035156 -4.609375 12.453125 -5.664062 12.453125 -7 C 12.453125 -8.332031 12.035156 -9.390625 11.203125 -10.171875 C 10.367188 -10.953125 9.253906 -11.34375 7.859375 -11.34375 L 4.90625 -11.34375 L 4.90625 -2.65625 Z M 7.859375 -2.65625 "/></g></g></g><g fill="#ffffff" fill-opacity="1"><g transform="translate(168.579748, 297.952891)"><g><path d="M 12.5 -2.59375 L 12.5 0 L 1.65625 0 L 1.65625 -14 L 12.234375 -14 L 12.234375 -11.40625 L 4.875 -11.40625 L 4.875 -8.359375 L 11.375 -8.359375 L 11.375 -5.84375 L 4.875 -5.84375 L 4.875 -2.59375 Z M 12.5 -2.59375 "/></g></g></g><g fill="#ffffff" fill-opacity="1"><g transform="translate(187.454373, 297.952891)"><g/></g></g><g fill="#ffffff" fill-opacity="1"><g transform="translate(198.572055, 297.952891)"><g><path d="M 1.65625 -14 L 4.90625 -14 L 4.90625 0 L 1.65625 0 Z M 1.65625 -14 "/></g></g></g><g fill="#ffffff" fill-opacity="1"><g transform="translate(210.589404, 297.952891)"><g><path d="M 14.5 -14 L 14.5 0 L 11.84375 0 L 4.859375 -8.5 L 4.859375 0 L 1.65625 0 L 1.65625 -14 L 4.34375 -14 L 11.296875 -5.5 L 11.296875 -14 Z M 14.5 -14 "/></g></g></g><g fill="#ffffff" fill-opacity="1"><g transform="translate(232.202966, 297.952891)"><g><path d="M 11.125 -7.21875 L 14.078125 -7.21875 L 14.078125 -1.546875 C 13.316406 -0.972656 12.4375 -0.53125 11.4375 -0.21875 C 10.4375 0.0820312 9.429688 0.234375 8.421875 0.234375 C 6.960938 0.234375 5.65625 -0.0703125 4.5 -0.6875 C 3.34375 -1.3125 2.429688 -2.171875 1.765625 -3.265625 C 1.109375 -4.367188 0.78125 -5.613281 0.78125 -7 C 0.78125 -8.382812 1.109375 -9.625 1.765625 -10.71875 C 2.429688 -11.820312 3.347656 -12.679688 4.515625 -13.296875 C 5.691406 -13.921875 7.015625 -14.234375 8.484375 -14.234375 C 9.703125 -14.234375 10.8125 -14.023438 11.8125 -13.609375 C 12.8125 -13.203125 13.65625 -12.601562 14.34375 -11.8125 L 12.265625 -9.90625 C 11.265625 -10.957031 10.054688 -11.484375 8.640625 -11.484375 C 7.742188 -11.484375 6.945312 -11.296875 6.25 -10.921875 C 5.5625 -10.546875 5.023438 -10.015625 4.640625 -9.328125 C 4.253906 -8.648438 4.0625 -7.875 4.0625 -7 C 4.0625 -6.132812 4.253906 -5.359375 4.640625 -4.671875 C 5.023438 -3.992188 5.5625 -3.460938 6.25 -3.078125 C 6.9375 -2.703125 7.71875 -2.515625 8.59375 -2.515625 C 9.53125 -2.515625 10.375 -2.71875 11.125 -3.125 Z M 11.125 -7.21875 "/></g></g></g><g fill="#ffffff" fill-opacity="1"><g transform="translate(253.076805, 297.952891)"><g><path d="M 12.5 -2.59375 L 12.5 0 L 1.65625 0 L 1.65625 -14 L 12.234375 -14 L 12.234375 -11.40625 L 4.875 -11.40625 L 4.875 -8.359375 L 11.375 -8.359375 L 11.375 -5.84375 L 4.875 -5.84375 L 4.875 -2.59375 Z M 12.5 -2.59375 "/></g></g></g><g fill="#ffffff" fill-opacity="1"><g transform="translate(271.95143, 297.952891)"><g><path d="M 14.5 -14 L 14.5 0 L 11.84375 0 L 4.859375 -8.5 L 4.859375 0 L 1.65625 0 L 1.65625 -14 L 4.34375 -14 L 11.296875 -5.5 L 11.296875 -14 Z M 14.5 -14 "/></g></g></g><g fill="#ffffff" fill-opacity="1"><g transform="translate(293.564992, 297.952891)"><g><path d="M 1.65625 -14 L 4.90625 -14 L 4.90625 0 L 1.65625 0 Z M 1.65625 -14 "/></g></g></g><g fill="#ffffff" fill-opacity="1"><g transform="translate(305.582341, 297.952891)"><g><path d="M 12.5 -2.59375 L 12.5 0 L 1.65625 0 L 1.65625 -14 L 12.234375 -14 L 12.234375 -11.40625 L 4.875 -11.40625 L 4.875 -8.359375 L 11.375 -8.359375 L 11.375 -5.84375 L 4.875 -5.84375 L 4.875 -2.59375 Z M 12.5 -2.59375 "/></g></g></g><g fill="#ffffff" fill-opacity="1"><g transform="translate(324.456965, 297.952891)"><g><path d="M 10.578125 0 L 7.875 -3.90625 L 4.90625 -3.90625 L 4.90625 0 L 1.65625 0 L 1.65625 -14 L 7.71875 -14 C 8.957031 -14 10.03125 -13.789062 10.9375 -13.375 C 11.851562 -12.96875 12.554688 -12.382812 13.046875 -11.625 C 13.546875 -10.863281 13.796875 -9.960938 13.796875 -8.921875 C 13.796875 -7.878906 13.546875 -6.976562 13.046875 -6.21875 C 12.546875 -5.46875 11.835938 -4.894531 10.921875 -4.5 L 14.0625 0 Z M 10.515625 -8.921875 C 10.515625 -9.703125 10.257812 -10.300781 9.75 -10.71875 C 9.25 -11.144531 8.515625 -11.359375 7.546875 -11.359375 L 4.90625 -11.359375 L 4.90625 -6.484375 L 7.546875 -6.484375 C 8.515625 -6.484375 9.25 -6.695312 9.75 -7.125 C 10.257812 -7.550781 10.515625 -8.148438 10.515625 -8.921875 Z M 10.515625 -8.921875 "/></g></g></g><g fill="#ffffff" fill-opacity="1"><g transform="translate(344.611086, 297.952891)"><g><path d="M 1.65625 -14 L 4.90625 -14 L 4.90625 0 L 1.65625 0 Z M 4.15625 -18.015625 L 7.515625 -18.015625 L 3.90625 -15.140625 L 1.46875 -15.140625 Z M 4.15625 -18.015625 "/></g></g></g><g fill="#ffffff" fill-opacity="1"><g transform="translate(356.628434, 297.952891)"><g><path d="M 10.875 -3 L 4.375 -3 L 3.140625 0 L -0.1875 0 L 6.0625 -14 L 9.265625 -14 L 15.515625 0 L 12.125 0 Z M 9.859375 -5.453125 L 7.640625 -10.8125 L 5.421875 -5.453125 Z M 9.859375 -5.453125 "/></g></g></g></svg>