<svg version="1.1" id="Layer_1" xmlns="http://www.w3.org/2000/svg" xmlns:xlink="http://www.w3.org/1999/xlink" x="0px" y="0px"
	 width="100%" viewBox="0 0 436 439" enable-background="new 0 0 436 439" xml:space="preserve">
<path fill="#151515" opacity="1.000000" stroke="none" 
	d="
M1.000000,156.000000 
	C1.000000,104.000031 1.000000,52.500053 1.000000,1.000062 
	C146.333237,1.000041 291.666473,1.000041 436.999756,1.000021 
	C436.999847,147.333145 436.999847,293.666290 436.999939,439.999573 
	C291.666931,439.999725 146.333862,439.999725 1.000393,439.999878 
	C1.000000,345.500000 1.000000,251.000000 1.000000,156.000000 
M423.977722,152.530014 
	C393.868011,69.731400 335.501648,19.802607 248.485031,6.470987 
	C182.108856,-3.698360 122.640533,15.561004 73.379929,60.896587 
	C15.877465,113.817322 -6.425235,180.677643 6.516429,257.517609 
	C26.541704,376.415833 140.573685,455.576141 258.795471,431.595428 
	C347.612671,413.579376 404.886230,358.872589 428.466583,270.932709 
	C439.001709,231.643265 436.910370,192.101547 423.977722,152.530014 
z"/>
<path fill="#FEFEFE" opacity="1.000000" stroke="none" 
	d="
M424.070068,152.917297 
	C436.910370,192.101547 439.001709,231.643265 428.466583,270.932709 
	C404.886230,358.872589 347.612671,413.579376 258.795471,431.595428 
	C140.573685,455.576141 26.541704,376.415833 6.516429,257.517609 
	C-6.425235,180.677643 15.877465,113.817322 73.379929,60.896587 
	C122.640533,15.561004 182.108856,-3.698360 248.485031,6.470987 
	C335.501648,19.802607 393.868011,69.731400 424.070068,152.917297 
M60.516171,181.003601 
	C54.307201,206.049683 54.601315,231.144730 60.063484,256.251312 
	C74.772148,323.858826 134.752014,376.595367 203.571777,382.234436 
	C253.732254,386.344543 297.236206,370.928436 333.256866,335.902344 
	C361.343109,308.591522 377.696259,275.006042 380.925385,235.848251 
	C382.092072,221.700836 380.326752,207.311630 380.548248,192.681015 
	C380.933655,191.349136 381.747620,189.973648 381.617462,188.694199 
	C381.323730,185.807068 380.673126,182.939621 379.958801,180.117035 
	C379.358063,177.743332 378.491760,175.434067 377.688873,173.115005 
	C376.776550,170.479767 375.252167,167.924408 374.963959,165.230545 
	C374.183685,157.937256 373.511993,149.976288 368.700592,144.785904 
	C361.835846,137.380493 358.872345,128.877365 356.638672,119.625015 
	C356.327789,118.337296 355.355286,116.515350 354.314850,116.208221 
	C346.461334,113.889809 343.681641,107.540680 341.221802,100.434212 
	C336.334534,102.017334 333.013489,99.110748 329.523407,96.114113 
	C324.780640,92.041901 319.869476,88.140335 314.808990,84.471153 
	C310.254395,81.168770 305.090393,78.661270 300.740204,75.131470 
	C289.617889,66.106636 275.810669,63.651791 262.868439,59.135723 
	C257.639038,57.310966 252.036407,56.528866 246.576401,55.404316 
	C244.179459,54.910633 241.095520,53.664158 239.395721,54.635605 
	C234.166397,57.624187 229.521561,54.257698 224.638718,54.257671 
	C219.307785,54.257641 213.956436,53.523655 208.650604,53.803528 
	C200.335693,54.242119 192.041916,55.176250 183.759750,56.087311 
	C181.042145,56.386257 178.333923,57.094582 175.720688,57.927284 
	C173.098846,58.762730 170.684174,60.513489 168.031570,60.933235 
	C162.119965,61.868679 156.445724,62.832611 151.880280,67.317558 
	C150.474823,68.698235 148.049301,69.093178 146.040253,69.794571 
	C142.918533,70.884407 139.199326,71.113289 136.700272,72.992752 
	C124.122787,82.451843 111.646828,92.074135 99.573280,102.163330 
	C93.410294,107.313416 87.545731,112.842491 85.382164,121.483864 
	C84.430679,125.284164 80.285797,128.228714 77.819313,131.723083 
	C75.707451,134.715027 73.671562,137.813324 72.051231,141.086899 
	C69.730530,145.775421 68.668518,151.347687 65.507301,155.290436 
	C61.924282,159.759277 59.979706,164.605194 58.187588,169.762039 
	C56.790203,173.783051 57.765965,177.161987 60.516171,181.003601 
z"/>
<path fill="#141414" opacity="1.000000" stroke="none" 
	d="
M379.899384,193.032761 
	C380.326752,207.311630 382.092072,221.700836 380.925385,235.848251 
	C377.696259,275.006042 361.343109,308.591522 333.256866,335.902344 
	C297.236206,370.928436 253.732254,386.344543 203.571777,382.234436 
	C134.752014,376.595367 74.772148,323.858826 60.063484,256.251312 
	C54.601315,231.144730 54.307201,206.049683 60.718510,180.270660 
	C83.191124,97.547615 158.824692,46.952854 242.949173,59.126118 
	C297.489380,67.018372 337.317932,97.027290 363.621246,145.186508 
	C371.801422,160.163681 376.406952,176.425552 379.899384,193.032761 
z"/>
<path fill="#F5F5F5" opacity="1.000000" stroke="none" 
	d="
M380.223816,192.856888 
	C376.406952,176.425552 371.801422,160.163681 363.621246,145.186508 
	C337.317932,97.027290 297.489380,67.018372 242.949173,59.126118 
	C158.824692,46.952854 83.191124,97.547615 60.756874,179.848267 
	C57.765965,177.161987 56.790203,173.783051 58.187588,169.762039 
	C59.979706,164.605194 61.924282,159.759277 65.507301,155.290436 
	C68.668518,151.347687 69.730530,145.775421 72.051231,141.086899 
	C73.671562,137.813324 75.707451,134.715027 77.819313,131.723083 
	C80.285797,128.228714 84.430679,125.284164 85.382164,121.483864 
	C87.545731,112.842491 93.410294,107.313416 99.573280,102.163330 
	C111.646828,92.074135 124.122787,82.451843 136.700272,72.992752 
	C139.199326,71.113289 142.918533,70.884407 146.040253,69.794571 
	C148.049301,69.093178 150.474823,68.698235 151.880280,67.317558 
	C156.445724,62.832611 162.119965,61.868679 168.031570,60.933235 
	C170.684174,60.513489 173.098846,58.762730 175.720688,57.927284 
	C178.333923,57.094582 181.042145,56.386257 183.759750,56.087311 
	C192.041916,55.176250 200.335693,54.242119 208.650604,53.803528 
	C213.956436,53.523655 219.307785,54.257641 224.638718,54.257671 
	C229.521561,54.257698 234.166397,57.624187 239.395721,54.635605 
	C241.095520,53.664158 244.179459,54.910633 246.576401,55.404316 
	C252.036407,56.528866 257.639038,57.310966 262.868439,59.135723 
	C275.810669,63.651791 289.617889,66.106636 300.740204,75.131470 
	C305.090393,78.661270 310.254395,81.168770 314.808990,84.471153 
	C319.869476,88.140335 324.780640,92.041901 329.523407,96.114113 
	C333.013489,99.110748 336.334534,102.017334 341.221802,100.434212 
	C343.681641,107.540680 346.461334,113.889809 354.314850,116.208221 
	C355.355286,116.515350 356.327789,118.337296 356.638672,119.625015 
	C358.872345,128.877365 361.835846,137.380493 368.700592,144.785904 
	C373.511993,149.976288 374.183685,157.937256 374.963959,165.230545 
	C375.252167,167.924408 376.776550,170.479767 377.688873,173.115005 
	C378.491760,175.434067 379.358063,177.743332 379.958801,180.117035 
	C380.673126,182.939621 381.323730,185.807068 381.617462,188.694199 
	C381.747620,189.973648 380.933655,191.349136 380.223816,192.856888 
z"/>
</svg>